<?xml version="1.0" encoding="UTF-8"?>
<svg id="Layer_1" xmlns="http://www.w3.org/2000/svg" xmlns:xlink="http://www.w3.org/1999/xlink" version="1.1" viewBox="0 0 1920 1080">
  <!-- Generator: Adobe Illustrator 29.7.1, SVG Export Plug-In . SVG Version: 2.1.1 Build 8)  -->
  <defs>
    <style>
      .st0 {
        fill: url(#linear-gradient);
      }

      .st1 {
        stroke: #fff;
        stroke-miterlimit: 10;
        stroke-width: .6px;
      }

      .st1, .st2 {
        fill: #fff;
      }

      .st3 {
        fill: #6c002d;
      }
    </style>
    <linearGradient id="linear-gradient" x1="957.27" y1="1082.44" x2="957.27" y2="3.44" gradientUnits="userSpaceOnUse">
      <stop offset=".65" stop-color="#6c002d"/>
      <stop offset="1" stop-color="#a90533"/>
    </linearGradient>
  </defs>
  <g>
    <rect class="st0" x="-2.23" y="3.44" width="1919" height="1079"/>
    <path class="st3" d="M1916.27,3.94v1078H-1.73V3.94h1918M1917.27,2.94H-2.73v1080h1920V2.94h0Z"/>
  </g>
  <g>
    <g>
      <path class="st2" d="M912.77,564.71c-2.03,13.8-8.23,20.8-20.63,20.8h-20.46c-14.97,0-21.38-10-21.38-35s6.41-35,21.38-35h20.46c12.4,0,18.6,7,20.63,20.8.11,1.4-.64,2.2-2.03,2.2h-8.04c-1.28,0-2.14-.7-2.24-1.9-1.28-8.1-4.28-11.1-10.05-11.1h-16.99c-7.48,0-10.69,4-10.69,25s3.21,25,10.69,25h16.99c5.77,0,8.77-3,10.05-11.1.11-1.2.96-1.9,2.24-1.9h8.04c1.39,0,2.14.8,2.03,2.2Z"/>
      <path class="st2" d="M920.78,567.14c0-8.16,5.11-11.63,11.78-11.63h26.55v-6.88c0-3.09-1.1-4.12-4.4-4.12h-12.65c-4.18,0-6.38,1.34-6.93,4.94-.22,1.34-.88,2.06-2.2,2.06h-6.5c-1.39,0-2.25-.8-2.03-2.1,1.28-9.5,7.8-13.9,16.78-13.9h16.03c8.55,0,13.9,5,13.9,13v27.82c0,5.51-3.78,9.18-9.78,9.18h-24.66c-8.89,0-15.89-5-15.89-18.37ZM959.1,574.58v-9.07h-20.83c-2.58,0-3.61.96-3.61,3.86,0,4.82,1.65,7.14,5.78,7.14h16.61c1.24,0,2.06-.58,2.06-1.93Z"/>
      <path class="st2" d="M982.1,583.49v-28.83c0-12.45,5.63-19.15,18.93-19.15h11.05c1.13,0,1.94.57,2.25,1.63l1.84,5.17c.41,1.34-.31,2.2-1.74,2.2h-8.12c-8.89,0-12.22,2.63-12.22,10.7v28.28c0,1.31-.78,2.02-2.22,2.02h-7.56c-1.44,0-2.22-.71-2.22-2.02Z"/>
      <path class="st2" d="M1026.1,525.48v-7.93c0-1.32.78-2.03,2.22-2.03h7.55c1.45,0,2.22.71,2.22,2.03v7.93c0,1.32-.78,2.03-2.22,2.03h-7.55c-1.44,0-2.22-.71-2.22-2.03ZM1026.1,583.51v-46c0-1.3.78-2,2.22-2h7.55c1.45,0,2.22.7,2.22,2v46c0,1.3-.78,2-2.22,2h-7.55c-1.44,0-2.22-.7-2.22-2Z"/>
      <path class="st2" d="M1086.1,583.49v-28.28c0-8.08-3.26-10.7-11.96-10.7h-13.04v38.98c0,1.31-.76,2.02-2.17,2.02h-6.67c-1.4,0-2.15-.7-2.15-2v-46c0-1.3.76-2,2.15-2h25.94c13.99,0,19.91,7,19.91,20v28c0,1.3-.75,2-2.15,2h-7.67c-1.41,0-2.17-.71-2.17-2.02Z"/>
      <path class="st2" d="M1105.78,567.14c0-8.16,5.11-11.63,11.78-11.63h26.55v-6.88c0-3.09-1.1-4.12-4.4-4.12h-12.65c-4.18,0-6.38,1.34-6.93,4.94-.22,1.34-.88,2.06-2.2,2.06h-6.5c-1.39,0-2.25-.8-2.03-2.1,1.28-9.5,7.8-13.9,16.78-13.9h16.03c8.55,0,13.9,5,13.9,13v27.82c0,5.51-3.78,9.18-9.78,9.18h-24.66c-8.89,0-15.89-5-15.89-18.37ZM1144.1,574.58v-9.07h-20.83c-2.58,0-3.61.96-3.61,3.86,0,4.82,1.65,7.14,5.78,7.14h16.61c1.24,0,2.06-.58,2.06-1.93Z"/>
    </g>
    <polygon class="st2" points="841.78 585.23 808.1 564.55 808.1 560.47 841.78 539.79 806.97 556.51 802.32 556.51 800.1 517.07 797.89 556.51 793.24 556.51 758.43 539.79 792.1 560.47 792.1 564.55 758.43 585.23 793.24 568.51 797.89 568.51 800.1 607.95 802.32 568.51 806.97 568.51 841.78 585.23"/>
    <polygon class="st2" points="791.73 533.48 779.1 524.86 779.1 523.16 791.73 514.54 778.68 521.51 776.94 521.51 776.1 505.08 775.27 521.51 773.53 521.51 760.48 514.54 773.1 523.16 773.1 524.86 760.48 533.48 773.53 526.51 775.27 526.51 776.1 542.94 776.94 526.51 778.68 526.51 791.73 533.48"/>
    <polygon class="st2" points="839.48 511.36 821.1 499.99 821.1 497.74 839.48 486.36 820.15 495.51 817.57 495.51 816.34 473.86 815.11 495.51 812.53 495.51 793.2 486.36 812.1 497.74 812.1 499.99 793.2 511.36 812.53 502.51 815.11 502.51 816.34 523.86 817.57 502.51 820.15 502.51 839.48 511.36"/>
  </g>
  <g>
    <line class="st1" x1="996.41" y1="111.48" x2="996.41" y2="49.73"/>
    <g>
      <path class="st2" d="M807.99,111.48c-8.43,0-9.08-6.4-9.08-8.37,0-2.31.62-6.39,5.99-8.37,5.55-2.04,6.73-2.27,10.55-3.47v-.99c0-1.85,0-2.3-.37-3.45-.74-2.2-2.85-3.58-5.71-3.58-4.21,0-5.94,3.21-5.95,3.25l-.34.63-1.56-.93.15-.48c.76-2.42,3.82-6.54,10.49-6.54,4.34,0,7.16,1.23,8.92,3.89,1.3,2.11,1.41,5.03,1.41,8.07,0,2.68-.06,5.66-.12,8.07-.04,1.65-.07,3.08-.07,3.95,0,2.2.35,3.9,2.18,3.9.45,0,.76-.1,1.02-.31l.5-.43,1.03,1.17-.34.44c-1.68,2.03-3.29,3.46-6.15,3.46-2.47,0-4.19-1.17-4.77-3.15-1.37,1.43-3.87,3.21-7.79,3.21ZM815.45,95.12c-4.15,1.25-5.55,1.94-6.84,2.59-1.78.9-2.71,2.74-2.71,4.88,0,1.68.6,4.51,4.64,4.51,1.34,0,3.24-.25,4.91-1.44v-10.54Z"/>
      <g>
        <path class="st2" d="M756.46,111.41c-4.04,0-7.11-.45-10.26-1.47l-.45-.15v-2.26c0-3.01-.06-4.19-.13-5.15l-.09-1.57h1.84s.04.66.04.66c.08,1.41.55,2.79,1.41,3.75,1.32,1.5,4.37,2.4,7.2,2.4,5.93,0,8.69-2.25,8.69-7.06,0-4.13-2.55-5.85-6.07-8.23l-.56-.39-3.72-2.48c-5.17-3.43-7.81-6.17-7.81-11.66,0-2.68,1.01-11.44,14.06-11.44,5.35,0,9.48.7,9.65.73l.56.1-.02.55s-.05,1.72-.05,3.56c0,1.45-.03,2.72.03,4.02l.05.97h-1.58l-.04-.61c-.12-1.66-.6-2.85-1.51-3.76-1.25-1.26-4.03-1.85-6.97-1.85-6.91,0-7.72,3.55-7.72,6.21,0,3.67,1.88,4.91,5.99,7.63l4.71,3.12c4.02,2.68,7.8,5.21,7.8,11.87,0,11.27-10.51,12.49-15.03,12.49Z"/>
        <path class="st2" d="M787.36,111.6c-4.81,0-7.48-1.72-8.66-5.56-.49-1.53-.49-4.54-.49-6.34,0-4.97.05-8.96.1-13.58l.03-2.17h-4.11v-1.23l.4-.16c1.91-.79,2.64-1.33,3.49-1.98,2.99-2.32,5.07-6.24,5.1-6.3l.7-1.19h1.36v6.99h10.6v3.86h-10.6v16.34c0,4.88.91,7.66,5.53,7.66,2.15,0,3.8-.83,3.81-.84l.64-.33.55,1.26-.27.3c-.11.12-2.51,3.25-8.16,3.25Z"/>
        <path class="st2" d="M829.69,111.21v-1.48l.6-.05c.52-.04,1.84-.25,2.76-1.29.96-1.07,1.02-3.73,1.02-9.03v-8.89c0-3.83-.06-5.46-.61-6.3-.64-.92-2.04-1.01-2.79-1.07-.1,0-.18-.01-.26-.02l-.59-.06v-1.78l.7.05c.12.02.28.02.48.02.96,0,3.23-.13,5.62-.59,1.83-.29,2.89-.92,3.28-1.1l.36-.17.61.37v2.47c1.57-1.17,4.73-2.99,9.02-2.99,5.61,0,9.27,2.63,10.32,7.38.3,1.18.41,4.04.41,5.57v9.08c0,5.14.2,6.57,1.16,7.48.48.45,1.51.81,2.41.87l.61.05v1.45l-1.54-.08c-2.24-.11-4.16-.21-6.17-.21-2.3,0-4.29,0-7.06.26l-.72.07v-1.44l.56-.08c1.21-.19,2.05-.53,2.58-1.06,1.01-1.01,1.06-3.4,1.14-5.46.01-.34.03-.7.05-1.08.06-1.16.06-3.61.06-5.39,0-2.33,0-4.74-.26-7.12-.46-4.02-2.56-5.89-6.6-5.89-2.78,0-4.51.63-5.83,1.31v16.34c0,5.14.21,6.57,1.17,7.48.49.45,1.5.81,2.41.87l.61.05v1.45l-1.65-.08c-2.15-.12-4.02-.21-5.98-.21-2.25,0-4.36,0-7.14.26l-.7.07Z"/>
        <path class="st2" d="M868.48,111.21v-1.51l.61-.04c.53-.04,1.85-.25,2.76-1.28.97-1.07,1.01-3.7,1.01-9v-15.42h-4.06v-1.75l.41-.17c1.76-.73,2.85-1.3,3.65-1.93,0-2.76.09-6.31.46-8.25,1.23-6.42,5.43-9.68,12.48-9.68,3.03,0,5.92,1.01,7.59,2.37l.24.19.1.66-3.09,4.29h-.74s-.17-.38-.17-.38c-1.18-2.64-2.9-3.67-5.24-3.67-.97,0-2.31.29-3.13,1.12-1.35,1.34-1.57,3.35-1.57,7.32v6.01h6.93v3.86h-6.93v17.25c0,4.1.14,6.1.67,6.91.87,1.31,3.51,1.41,4.29,1.41h.66v1.66l-.69-.04c-3.42-.18-5.97-.26-7.81-.26-2.31,0-4.93,0-7.72.26l-.72.07Z"/>
        <path class="st2" d="M904.26,111.74c-9.49,0-15.16-5.92-15.16-15.82,0-7.69,4.14-16.67,15.82-16.67,9.5,0,15.17,5.92,15.17,15.81,0,7.7-4.15,16.68-15.83,16.68ZM904.66,82.84c-1.84,0-3.32.47-4.4,1.41-2.5,2.09-3.76,5.91-3.76,11.33,0,2.1.39,12.56,8.05,12.56,1.83,0,3.31-.48,4.41-1.41,2.49-2.1,3.76-5.91,3.76-11.34,0-2.1-.39-12.56-8.05-12.56Z"/>
        <path class="st2" d="M923.09,111.21v-1.57l.61-.05c.53-.03,1.85-.24,2.76-1.28.97-1.07,1.01-3.63,1.01-8.93v-8.89c0-3.83-.05-5.46-.6-6.3-.64-.92-2.04-1.01-2.79-1.07-.09,0-.18-.01-.25-.02l-.6-.06v-1.88h.67c.12.02.32.03.51.03.97,0,3.23-.12,5.62-.59,1.51-.25,2.81-.64,3.33-.89l.36-.16.55.29v2.7c1.49-1.41,3.86-2.9,7.19-2.9,2.17,0,3.93.58,5.21,1.73l.21.2v.98l-2.62,4.8h-1.26l-.19-.3c-.73-1.14-2.19-2.5-5.01-2.5-1.29,0-2.41.32-3.4.99v15.68c0,4.1.14,6.05.67,6.85.88,1.3,3.51,1.41,4.29,1.41h.65v1.72l-.68-.04c-3.42-.18-5.98-.26-7.81-.26-2.31,0-4.93,0-7.71.26l-.72.07Z"/>
        <path class="st2" d="M971.99,111.64l-.83-.28v-2.62c-1.54,1.14-4.6,2.92-8.69,2.92-8.54,0-14.07-5.92-14.07-15.1,0-3.05.6-5.94,1.7-8.37,2.6-5.65,8.02-8.88,14.84-8.88,2.5,0,4.74.31,6.08.6v-6.61c0-3.88-.05-5.94-.61-6.78-.63-.9-2-1.01-2.73-1.06-.1,0-.18,0-.25-.02l-.59-.06.14-1.39h.66c.15,0,3.75-.3,6.66-.87,1.23-.2,2.44-.48,3.07-.71l.31-.12.54.32-.03.3c-.21,2.56-.24,8.05-.24,12.15v25.36c0,3.79.05,6.14.6,6.89.65.93,2,1.08,2.74,1.14.1,0,.19,0,.26.02l.58.02v1.67h-.65c-.7,0-3.41.19-6.04.65-1.51.25-2.62.46-3.17.72l-.28.12ZM964.81,83.04c-6.06,0-9.02,4.15-9.02,12.68,0,3.46.98,11.5,10.01,11.5h.29c1.1,0,3.15-.16,4.93-1.27v-20.83c-.51-.5-2.4-2.08-6.21-2.08Z"/>
      </g>
    </g>
    <g>
      <path class="st2" d="M1011.26,74.28v-22.75h7.11c1.55,0,2.93.2,4.13.61,1.2.4,2.15,1.07,2.83,2.01.68.94,1.02,2.19,1.02,3.76s-.34,2.79-1.02,3.78c-.68,1-1.63,1.74-2.83,2.24-1.2.5-2.58.75-4.13.75h-4.23v9.61h-2.88ZM1014.14,62.31h3.82c1.78,0,3.15-.36,4.09-1.09.95-.73,1.42-1.83,1.42-3.31s-.47-2.53-1.42-3.14c-.95-.61-2.31-.92-4.09-.92h-3.82v8.46ZM1023.74,74.28l-5.93-10.41,2.25-1.53,6.94,11.93h-3.26Z"/>
      <path class="st2" d="M1037.46,74.7c-1.5,0-2.87-.35-4.11-1.06-1.24-.7-2.22-1.71-2.93-3.02-.72-1.3-1.07-2.9-1.07-4.77s.37-3.4,1.11-4.72c.74-1.32,1.69-2.34,2.85-3.05,1.15-.72,2.38-1.08,3.67-1.08,1.44,0,2.65.33,3.66.99,1,.66,1.76,1.58,2.27,2.76.51,1.18.76,2.57.76,4.16,0,.3,0,.59-.02.87-.01.28-.05.55-.12.83h-12.14v-2.25h9.71c0-1.62-.35-2.86-1.06-3.73-.71-.87-1.72-1.3-3.04-1.3-.76,0-1.52.21-2.25.64-.74.43-1.35,1.11-1.82,2.06s-.71,2.21-.71,3.78c0,1.43.25,2.64.75,3.61.5.97,1.17,1.71,2.03,2.2.86.5,1.79.75,2.81.75.81,0,1.57-.11,2.27-.35.7-.23,1.35-.54,1.92-.94l1.04,1.87c-.74.51-1.57.92-2.48,1.25s-1.95.49-3.1.49Z"/>
      <path class="st2" d="M1052.68,74.7c-1.23,0-2.39-.21-3.48-.64-1.1-.43-2.03-1.02-2.79-1.79l1.32-1.66c.74.6,1.51,1.06,2.31,1.39.8.32,1.72.49,2.75.49,1.11,0,1.95-.26,2.5-.78s.83-1.14.83-1.86c0-.58-.19-1.06-.57-1.44-.38-.38-.85-.7-1.42-.97-.56-.27-1.17-.51-1.82-.75-.83-.3-1.63-.65-2.39-1.06s-1.38-.91-1.85-1.53-.71-1.38-.71-2.31c0-1.36.52-2.5,1.55-3.42,1.03-.91,2.45-1.37,4.28-1.37,1.04,0,2.01.18,2.91.54.9.36,1.67.82,2.32,1.37l-1.32,1.63c-.6-.42-1.22-.74-1.84-.97-.63-.23-1.32-.35-2.08-.35-1.06,0-1.85.24-2.34.73s-.75,1.05-.75,1.7c0,.51.15.93.45,1.26.3.34.72.63,1.26.89.54.25,1.16.5,1.85.73.88.32,1.72.69,2.52,1.09.8.4,1.45.92,1.94,1.56.5.64.75,1.46.75,2.48,0,.93-.24,1.76-.71,2.51-.47.75-1.17,1.36-2.08,1.82-.91.46-2.04.69-3.38.69Z"/>
      <path class="st2" d="M1070.04,74.7c-1.5,0-2.87-.35-4.11-1.06-1.24-.7-2.22-1.71-2.93-3.02-.72-1.3-1.07-2.9-1.07-4.77s.37-3.4,1.11-4.72c.74-1.32,1.69-2.34,2.85-3.05,1.15-.72,2.38-1.08,3.67-1.08,1.44,0,2.65.33,3.66.99,1,.66,1.76,1.58,2.27,2.76.51,1.18.76,2.57.76,4.16,0,.3,0,.59-.02.87-.01.28-.05.55-.12.83h-12.14v-2.25h9.71c0-1.62-.35-2.86-1.06-3.73-.71-.87-1.72-1.3-3.04-1.3-.76,0-1.52.21-2.25.64-.74.43-1.35,1.11-1.82,2.06s-.71,2.21-.71,3.78c0,1.43.25,2.64.75,3.61.5.97,1.17,1.71,2.03,2.2.86.5,1.79.75,2.81.75.81,0,1.57-.11,2.27-.35.7-.23,1.35-.54,1.92-.94l1.04,1.87c-.74.51-1.57.92-2.48,1.25s-1.95.49-3.1.49Z"/>
      <path class="st2" d="M1084.14,74.7c-.93,0-1.76-.19-2.52-.57-.75-.38-1.35-.92-1.78-1.63-.44-.71-.66-1.57-.66-2.59,0-1.9.83-3.33,2.5-4.3,1.67-.97,4.3-1.65,7.91-2.05-.02-.69-.13-1.36-.33-2.01-.2-.65-.55-1.17-1.06-1.56-.51-.39-1.21-.59-2.12-.59-.97,0-1.88.18-2.74.54-.86.36-1.62.76-2.29,1.2l-1.11-1.94c.51-.35,1.11-.69,1.8-1.02.69-.33,1.45-.61,2.25-.83.81-.22,1.66-.33,2.57-.33,1.36,0,2.48.28,3.35.85s1.5,1.37,1.91,2.41c.41,1.04.61,2.27.61,3.68v10.34h-2.36l-.24-2.01h-.1c-.81.67-1.68,1.24-2.6,1.72-.93.47-1.92.71-2.98.71ZM1084.93,72.34c.83,0,1.61-.19,2.34-.55s1.5-.91,2.31-1.63v-4.54c-1.9.23-3.39.53-4.49.88-1.1.36-1.89.8-2.38,1.34-.48.53-.73,1.17-.73,1.91,0,.93.29,1.59.87,1.99.58.4,1.27.61,2.08.61Z"/>
      <path class="st2" d="M1097.52,74.28v-16.86h2.36l.24,3.05h.1c.55-1.06,1.25-1.91,2.08-2.53s1.74-.94,2.71-.94c.37,0,.69.02.97.07s.55.14.83.28l-.62,2.43c-.25-.07-.49-.12-.71-.15-.22-.04-.5-.05-.85-.05-.72,0-1.46.29-2.24.87s-1.45,1.58-2.03,3.02v10.82h-2.84Z"/>
      <path class="st2" d="M1116.03,74.7c-1.5,0-2.86-.35-4.06-1.04-1.2-.69-2.15-1.7-2.85-3.02s-1.04-2.9-1.04-4.75.37-3.5,1.13-4.82,1.75-2.32,2.98-3.02c1.24-.69,2.57-1.04,4.01-1.04,1.11,0,2.06.19,2.86.55.8.37,1.48.85,2.06,1.42l-1.42,1.77c-.42-.42-.91-.75-1.47-.99-.57-.24-1.21-.36-1.93-.36-.99,0-1.89.27-2.69.81-.8.54-1.43,1.3-1.89,2.27-.46.97-.69,2.1-.69,3.4s.22,2.39.66,3.36,1.05,1.73,1.84,2.27c.78.54,1.7.82,2.74.82.79,0,1.51-.15,2.18-.45.67-.3,1.25-.68,1.74-1.14l1.25,1.73c-.72.67-1.53,1.21-2.43,1.61-.9.4-1.89.61-2.98.61Z"/>
      <path class="st2" d="M1125.15,74.28v-24.7h2.84v6.73l-.1,3.47c.81-.76,1.66-1.42,2.55-1.96.89-.54,1.91-.81,3.07-.81,1.78,0,3.08.56,3.9,1.68.82,1.12,1.23,2.76,1.23,4.91v10.68h-2.84v-10.3c0-1.6-.25-2.75-.75-3.45s-1.31-1.06-2.45-1.06c-.85,0-1.62.22-2.31.66-.68.44-1.45,1.09-2.31,1.94v12.21h-2.84Z"/>
      <path class="st2" d="M1019.9,111.86c-1.9,0-3.6-.47-5.12-1.4-1.52-.94-2.7-2.28-3.55-4.04-.85-1.75-1.28-3.87-1.28-6.35,0-1.83.25-3.47.75-4.93.5-1.46,1.21-2.7,2.14-3.73.92-1.03,1.99-1.81,3.21-2.34s2.55-.8,4.01-.8c1.36,0,2.58.28,3.66.83,1.08.55,1.94,1.21,2.58,1.98l-1.56,1.77c-.6-.65-1.29-1.15-2.06-1.51-.78-.36-1.64-.54-2.58-.54-1.41,0-2.65.37-3.73,1.13s-1.91,1.82-2.52,3.19c-.6,1.38-.9,3-.9,4.87s.29,3.57.87,4.96c.58,1.39,1.41,2.45,2.5,3.21s2.36,1.13,3.81,1.13c1.06,0,2.02-.2,2.86-.61.85-.4,1.61-1,2.31-1.78l1.53,1.7c-.9,1.04-1.91,1.84-3.02,2.41-1.11.56-2.4.85-3.88.85Z"/>
      <path class="st2" d="M1037.34,111.86c-1.36,0-2.64-.35-3.83-1.04-1.19-.69-2.15-1.7-2.88-3.02-.73-1.32-1.09-2.9-1.09-4.75s.36-3.5,1.09-4.82c.73-1.32,1.69-2.33,2.88-3.02,1.19-.69,2.47-1.04,3.83-1.04s2.67.35,3.85,1.04c1.18.69,2.14,1.7,2.86,3.02.73,1.32,1.09,2.93,1.09,4.82s-.36,3.44-1.09,4.75c-.73,1.32-1.68,2.33-2.86,3.02-1.18.69-2.46,1.04-3.85,1.04ZM1037.34,109.5c.97,0,1.83-.27,2.56-.82.74-.54,1.31-1.3,1.7-2.27s.59-2.09.59-3.36-.2-2.43-.59-3.42c-.39-.98-.96-1.75-1.7-2.29-.74-.55-1.59-.82-2.56-.82s-1.82.27-2.55.82c-.73.54-1.3,1.31-1.7,2.29-.41.98-.61,2.12-.61,3.42s.2,2.39.61,3.36c.4.97.97,1.73,1.7,2.27.73.55,1.58.82,2.55.82Z"/>
      <path class="st2" d="M1049.47,111.44v-16.86h2.36l.24,2.43h.1c.74-.78,1.55-1.45,2.41-2.01.86-.55,1.81-.83,2.83-.83,1.29,0,2.31.29,3.04.87.73.58,1.26,1.36,1.61,2.36.88-.97,1.77-1.75,2.67-2.34.9-.59,1.86-.88,2.88-.88,1.76,0,3.05.56,3.88,1.68.83,1.12,1.25,2.76,1.25,4.91v10.68h-2.84v-10.3c0-1.6-.25-2.75-.76-3.45-.51-.7-1.29-1.06-2.36-1.06-.67,0-1.35.22-2.03.64-.68.43-1.42,1.08-2.2,1.96v12.21h-2.84v-10.3c0-1.6-.25-2.75-.76-3.45-.51-.7-1.31-1.06-2.39-1.06-1.27,0-2.68.87-4.23,2.6v12.21h-2.84Z"/>
      <path class="st2" d="M1077.91,118.55v-23.97h2.36l.24,1.94h.1c.76-.65,1.61-1.2,2.53-1.66.93-.46,1.87-.69,2.85-.69,1.43,0,2.65.35,3.64,1.06.99.7,1.75,1.7,2.25,2.98.51,1.28.76,2.81.76,4.56,0,1.9-.34,3.53-1.02,4.89s-1.58,2.41-2.69,3.12-2.3,1.07-3.57,1.07c-.76,0-1.54-.17-2.32-.52s-1.57-.82-2.36-1.42l.07,2.95v5.69h-2.84ZM1084.88,109.46c.92,0,1.75-.26,2.48-.8.73-.53,1.3-1.3,1.72-2.31s.62-2.2.62-3.59c0-1.23-.15-2.31-.45-3.24-.3-.94-.78-1.66-1.42-2.18-.65-.52-1.5-.78-2.57-.78-.69,0-1.41.19-2.15.57-.74.38-1.53.95-2.36,1.72v8.85c.79.65,1.53,1.1,2.24,1.37.7.26,1.34.4,1.89.4Z"/>
      <path class="st2" d="M1102.08,111.86c-1.78,0-3.08-.56-3.9-1.68-.82-1.12-1.23-2.76-1.23-4.91v-10.68h2.85v10.3c0,1.57.25,2.71.75,3.42.5.71,1.3,1.06,2.41,1.06.85,0,1.63-.23,2.31-.68.68-.45,1.43-1.16,2.24-2.13v-11.97h2.84v16.86h-2.36l-.24-2.64h-.1c-.76.93-1.59,1.66-2.48,2.22s-1.91.83-3.07.83Z"/>
      <path class="st2" d="M1121.28,111.75c-1.78,0-3.03-.52-3.75-1.56-.72-1.04-1.08-2.39-1.08-4.06v-9.23h-2.5v-2.15l2.64-.17.35-5.41h2.39v5.41h4.58v2.32h-4.58v9.26c0,1.02.19,1.82.57,2.39s1.06.87,2.03.87c.3,0,.61-.03.94-.09.33-.06.65-.17.97-.33l.63,2.01c-.44.21-.94.38-1.49.52-.55.14-1.12.21-1.7.21Z"/>
      <path class="st2" d="M1129.41,91.12c-.55,0-1.01-.17-1.37-.52-.36-.35-.54-.8-.54-1.35s.18-1.01.54-1.35c.36-.35.81-.52,1.37-.52s1.01.17,1.37.52c.36.35.54.8.54,1.35s-.18,1.01-.54,1.35c-.36.35-.81.52-1.37.52ZM1127.99,111.44v-16.86h2.84v16.86h-2.84Z"/>
      <path class="st2" d="M1136.14,111.44v-16.86h2.36l.24,2.43h.1c.81-.81,1.66-1.48,2.57-2.03.9-.54,1.93-.81,3.09-.81,1.78,0,3.08.56,3.9,1.68.82,1.12,1.23,2.76,1.23,4.91v10.68h-2.84v-10.3c0-1.6-.25-2.75-.75-3.45-.5-.7-1.31-1.06-2.45-1.06-.85,0-1.62.22-2.31.66-.68.44-1.45,1.09-2.31,1.95v12.21h-2.84Z"/>
      <path class="st2" d="M1160.48,119.21c-1.36,0-2.57-.18-3.63-.54s-1.87-.87-2.46-1.54c-.59-.67-.88-1.49-.88-2.46,0-.72.22-1.4.66-2.06.44-.66,1.04-1.24,1.8-1.75v-.14c-.42-.28-.77-.64-1.06-1.09-.29-.45-.43-1-.43-1.65,0-.72.2-1.34.61-1.87.4-.53.82-.95,1.23-1.25v-.14c-.53-.46-1.03-1.08-1.49-1.87-.46-.79-.69-1.68-.69-2.67,0-1.23.3-2.29.89-3.19.59-.9,1.36-1.6,2.32-2.08.96-.49,2.01-.73,3.14-.73.46,0,.9.04,1.32.12.42.08.77.18,1.07.3h5.86v2.18h-3.5v.14c.42.37.76.83,1.02,1.39.27.55.4,1.22.4,1.98,0,1.2-.28,2.24-.83,3.1-.55.87-1.3,1.54-2.22,2.01-.93.47-1.97.71-3.12.71-.42,0-.85-.05-1.28-.15s-.85-.25-1.25-.43c-.28.25-.53.53-.75.83s-.33.69-.33,1.18c0,.53.21.97.64,1.32.43.35,1.21.52,2.34.52h3.26c1.96,0,3.44.32,4.42.95s1.47,1.66,1.47,3.07c0,1.04-.35,2-1.04,2.88-.69.88-1.68,1.59-2.96,2.13s-2.79.82-4.53.82ZM1160.89,117.24c1.06,0,1.99-.16,2.79-.49.8-.32,1.42-.75,1.87-1.28.45-.53.68-1.09.68-1.66,0-.78-.3-1.33-.88-1.63-.59-.3-1.43-.45-2.52-.45h-2.91c-.33,0-.68-.02-1.06-.07-.38-.05-.76-.12-1.13-.21-.63.44-1.07.9-1.34,1.39-.27.49-.4.97-.4,1.46,0,.9.43,1.62,1.3,2.15.87.53,2.06.8,3.59.8ZM1160.48,104.19c.65,0,1.24-.17,1.79-.5.54-.34.97-.8,1.3-1.4.32-.6.48-1.31.48-2.12,0-1.25-.35-2.21-1.04-2.9-.69-.68-1.54-1.02-2.53-1.02s-1.84.34-2.53,1.02c-.69.68-1.04,1.65-1.04,2.9,0,.81.16,1.51.48,2.12.32.6.76,1.07,1.3,1.4.55.34,1.14.5,1.79.5Z"/>
    </g>
  </g>
</svg>